<?xml version="1.0" encoding="UTF-8" standalone="no"?>
<svg
   xmlns:dc="http://purl.org/dc/elements/1.1/"
   xmlns:cc="http://creativecommons.org/ns#"
   xmlns:rdf="http://www.w3.org/1999/02/22-rdf-syntax-ns#"
   xmlns:svg="http://www.w3.org/2000/svg"
   xmlns="http://www.w3.org/2000/svg"
   width="1200"
   height="400"
   version="1.1"
   id="svg64">
  <defs
     id="defs888">
    <filter
       id="filter1475"
       style="color-interpolation-filters:sRGB;"
       height="1.4"
       y="-0.2">
      <feMorphology
         id="feMorphology1465"
         in="SourceGraphic"
         result="result8"
         operator="dilate"
         radius="2.7999999999999998" />
    </filter>
  </defs>
  <metadata
     id="metadata70">
    <rdf:RDF>
      <cc:Work
         rdf:about="">
        <dc:format>image/svg+xml</dc:format>
        <dc:type
           rdf:resource="http://purl.org/dc/dcmitype/StillImage" />
        <dc:title></dc:title>
      </cc:Work>
    </rdf:RDF>
  </metadata>
  <g
     id="g62"
     transform="translate(0,-11)">
    <title
       id="title41">Layer 1</title>
    <path
       d="M 411,68.59 V 342.4 c 0,21.28 -17.32,38.6 -38.6,38.6 H 38.59 C 17.31,381 0,363.68 0,342.4 V 68.59 C 0,47.31 17.31,30 38.59,30 H 372.4 C 393.68,30 411,47.31 411,68.59 Z M 396,342.4 V 68.59 C 396,55.58 381.51199,45 372.4,45 H 341 v 86.68 c 0,1.99 -0.79,3.9 -2.2,5.3 l -12.24,12.23 c 1.05,2.49 1.58,5.15 1.58,7.82 0,5.11 -1.95,10.23 -5.84,14.12 -3.78,3.78 -8.8,5.86 -14.14,5.86 -5.34,0 -10.37,-2.08 -14.14,-5.86 -3.78,-3.77 -5.86,-8.8 -5.86,-14.14 0,-5.34 2.08,-10.36 5.86,-14.14 3.77,-3.78 8.8,-5.86 14.14,-5.86 2.73,0 5.37,0.55 7.81,1.58 L 326,128.57 V 45 H 38.59 C 25.58,45 15,55.58 15,68.59 V 342.4 C 15,355.41 25.58,366 38.59,366 H 326 V 256.7 l -10.03,-10.03 c -2.44,1.03 -5.08,1.58 -7.81,1.58 -5.34,0 -10.37,-2.08 -14.14,-5.86 -3.78,-3.77 -5.86,-8.8 -5.86,-14.14 0,-5.34 2.08,-10.36 5.86,-14.14 3.77,-3.78 8.8,-5.86 14.14,-5.86 5.34,0 10.36,2.08 14.14,5.86 5.92,5.92 7.34,14.66 4.26,21.94 l 12.24,12.24 c 1.41,1.4 2.2,3.31 2.2,5.3 V 366 h 15 V 198.53 c -7.32,-2.98 -12.51,-10.16 -12.51,-18.53 0,-11.03 8.97,-20 20,-20 11.03,0 20,8.97 20,20 0,8.37 -5.17,15.55 -12.49,18.52 V 366 h 1.4 c 13.01,0 23.6,-10.59 23.6,-23.6 z M 368.49,180 c 0,-2.76 -2.24,-5 -5,-5 -2.75,0 -5,2.24 -5,5 0,2.75 2.25,5 5,5 2.76,0 5,-2.25 5,-5 z M 311.7,160.55 c 1.94,-1.95 1.94,-5.12 -0.01,-7.07 -0.94,-0.95 -2.2,-1.47 -3.53,-1.47 -1.34,0 -2.59,0.52 -3.54,1.47 -0.94,0.94 -1.46,2.2 -1.46,3.53 0,1.34 0.52,2.59 1.46,3.54 0.95,0.94 2.2,1.46 3.54,1.46 1.33,0 2.59,-0.52 3.54,-1.46 z m 0,71.24 c 1.94,-1.95 1.94,-5.13 -0.01,-7.07 -0.94,-0.95 -2.2,-1.47 -3.53,-1.47 -1.34,0 -2.59,0.52 -3.54,1.46 -0.94,0.95 -1.46,2.21 -1.46,3.54 0,1.34 0.52,2.59 1.46,3.54 0.95,0.94 2.2,1.46 3.54,1.46 1.33,0 2.59,-0.52 3.54,-1.46 z"
       id="svg_2"
       style="fill:#ffffff" />
    <path
       d="m 395.89063,68.60563 v 273.81 c 0,13.01 -9.86506,23.6 -23.60001,23.6 h -1.4 v -167.48 c 7.32001,-2.97 12.49001,-10.15 12.49001,-18.52 0,-11.03001 -8.97001,-20 -20,-20 -11.02999,0 -20,8.96999 -20,20 0,8.37 5.18999,15.55 12.50999,18.53 v 167.47 h -15 v -112.41 c 0,-1.99001 -0.78999,-3.90001 -2.2,-5.30001 l -12.23999,-12.23999 c 3.08,-7.28 1.65999,-16.02 -4.26001,-21.94 -3.77999,-3.78 -8.8,-5.86 -14.14,-5.86 -5.34,0 -10.36999,2.08 -14.14,5.86 -3.78,3.77999 -5.86,8.79999 -5.86,14.14 0,5.34001 2.08,10.37 5.86,14.13999 3.77001,3.78 8.8,5.86001 14.14,5.86001 2.73001,0 5.37001,-0.55001 7.81,-1.58001 l 10.03,10.03 v 109.30001 h -287.41 c -13.01,0 -23.59,-10.59 -23.59,-23.6 v -273.81 c 0,-13.01 10.58,-23.59 23.59,-23.59 h 287.41 v 83.56999 l -10.03,10.02001 c -2.43999,-1.03 -5.07999,-1.58 -7.81,-1.58 -5.34,0 -10.36999,2.08 -14.14,5.86 -3.78,3.78 -5.86,8.8 -5.86,14.14 0,5.33999 2.08,10.36999 5.86,14.14 3.77001,3.78 8.8,5.86 14.14,5.86 5.34,0 10.36001,-2.08 14.14,-5.86 3.89,-3.89 5.84001,-9.01 5.84001,-14.12 0,-2.67001 -0.53001,-5.33 -1.58,-7.82001 l 12.23999,-12.22999 c 1.41001,-1.40001 2.2,-3.31 2.2,-5.3 v -86.68 h 31.4 c 13.01001,0 23.60001,10.58 23.60001,23.59 z"
       id="svg_3"
       style="fill:#44aa00" />
    <g
       stroke="null"
       id="svg_13"
       style="fill:#ffffff"
       transform="matrix(1.0753817,0,0,1.0879453,-13.533404,-19.852905)">
      <g
         stroke="null"
         id="svg_1"
         style="fill:#ffffff">
        <path
           stroke="null"
           id="svg_4"
           d="M 257.62741,160.32882 C 240.801,119.26126 200.06141,90 153,90 105.92667,90 65.194586,119.27141 48.373035,160.32838 43.310988,163.93202 40,169.84245 40,176.51563 v 52.96875 c 0,6.67318 3.310988,12.5836 8.373035,16.18725 C 65.198559,286.73786 105.93771,316 153,316 c 47.07333,0 87.80497,-29.27141 104.62741,-70.32882 5.0616,-3.60364 8.37259,-9.51407 8.37259,-16.1868 v -52.96875 c 0,-6.67274 -3.31099,-12.58317 -8.37259,-16.18681 z m -16.3263,-3.67648 h -33.85012 c -4.20792,-18.02923 -10.77605,-33.55217 -19.13231,-45.13732 -0.58398,-0.8091 -1.17502,-1.59392 -1.77225,-2.35931 23.22195,8.4057 43.00445,25.28816 54.75468,47.49663 z M 159.6211,104.351 c 18.11752,6.08302 29.44665,33.51068 34.2028,52.30134 h -34.2028 z m -13.24219,0 v 52.30134 h -34.20325 c 3.80316,-15.02502 9.35693,-27.84081 16.24552,-37.39064 4.13862,-5.7374 10.29447,-12.33774 17.95773,-14.9107 z m -26.92534,4.80471 c -0.59723,0.76539 -1.18827,1.54977 -1.77225,2.35931 -8.35626,11.58515 -14.92483,27.10808 -19.132312,45.13732 H 64.698887 C 76.449121,134.44387 96.231184,117.56141 119.45357,109.15571 Z M 64.698887,249.34766 h 33.850121 c 3.853482,16.5108 10.473242,34.12732 20.904562,47.49663 -23.222386,-8.4057 -43.004449,-25.28816 -54.754683,-47.49663 z M 146.37891,301.649 c -18.11752,-6.08302 -29.4471,-33.51068 -34.20325,-52.30134 h 34.20325 z m 13.24219,0 v -52.38962 h 34.20324 c -4.76365,18.81847 -16.12413,46.3194 -34.20324,52.38962 z m 26.92534,-4.80471 c 10.42998,-13.36754 17.05064,-31.07058 20.90455,-47.58491 h 33.85013 c -11.75024,22.20847 -31.5323,39.17921 -54.75468,47.58491 z m 66.21138,-67.35992 c 0,3.65088 -2.97023,6.6211 -6.6211,6.6211 -4.20086,0 -181.470938,0 -186.273438,0 -3.650871,0 -6.621094,-2.97022 -6.621094,-6.6211 v -52.96875 c 0,-3.65087 2.970223,-6.62109 6.621094,-6.62109 5.047481,0 181.741078,0 186.273438,0 3.65087,0 6.6211,2.97022 6.6211,6.62109 z"
           style="fill:#ffffff" />
      </g>
    </g>
    <text
       transform="scale(0.78352209,1.2762882)"
       font-weight="bold"
       xml:space="preserve"
       font-size="24"
       id="svg_6"
       y="173.25095"
       x="192.67387"
       stroke-linecap="null"
       stroke-linejoin="null"
       style="font-weight:bold;font-size:40.22891617px;font-family:Sans-serif;text-anchor:middle;fill:#ffffff;stroke-width:0;stroke-dasharray:none">SMART DNS</text>
  </g>
  <text
     id="text881-6"
     xml:space="preserve"
     width="686.86316"
     height="132.18472"
     x="795.06732"
     y="341.91434"
     style="font-style:italic;font-variant:normal;font-weight:bold;font-stretch:normal;font-size:112.85948181px;line-height:1.25;font-family:sans-serif;-inkscape-font-specification:'sans-serif Bold Italic';letter-spacing:0px;word-spacing:0px;fill:#ffffff;fill-opacity:1;stroke:none;stroke-width:0.99999994;filter:url(#filter1475)"
     transform="matrix(0.97567876,0,0,1.0249275,-348,-28)">SMART DNS</text>
  <text
     id="text881"
     xml:space="preserve"
     width="686.86316"
     height="132.18472"
     x="437.26294"
     y="313.84378"
     style="font-style:italic;font-variant:normal;font-weight:bold;font-stretch:normal;font-size:112.85948181px;line-height:1.25;font-family:sans-serif;-inkscape-font-specification:'sans-serif Bold Italic';letter-spacing:0px;word-spacing:0px;fill:#44aa00;fill-opacity:1;stroke:none;stroke-width:0.99999994"
     transform="scale(0.97567876,1.0249275)">SMART DNS</text>
  <path
     style="fill:#ffffff;fill-opacity:1;stroke-width:1"
     d="m 441.65562,210.91257 c -0.88204,-2.41088 -25.48884,-99.53854 -25.28394,-99.71615 0.11023,-0.0955 82.63937,7.82242 166.287,12.70657 441.76442,25.79446 492.06032,33.25639 492.46712,32.84951 0.2434,-0.24341 -1.0391,-5.66325 -4.0728,-19.37741 -3.0338,-13.71416 -10.3898,-49.06149 -10.2351,-49.21626 0.1548,-0.15478 40.7992,42.78952 61.5766,65.56737 l 47.2951,51.84877 -181.79602,2.636 c -164.57977,2.38637 -406.6402,2.35076 -489.82157,3.43357 -37.62504,0.48979 -56.01783,0.35743 -56.41639,-0.73197 z"
     id="path0" />
  <path
     style="fill:#44aa00;fill-opacity:1;stroke-width:1"
     d="m 449.65542,200.91226 c -0.88204,-2.41088 -19.48884,-73.53854 -19.28394,-73.71615 0.11023,-0.0955 68.63937,3.82242 152.28699,8.70657 441.76443,25.79446 502.06033,29.25639 502.46713,28.84951 0.2434,-0.24341 -2.0396,-11.66325 -5.0733,-25.37741 -3.0338,-13.71416 -5.3893,-25.06148 -5.2346,-25.21625 0.1548,-0.15478 17.0643,18.55053 37.5766,41.56736 l 37.2951,41.84877 -161.796,0.636 c -164.59583,0.64701 -408.64017,2.35076 -491.82159,3.43357 -37.62504,0.48979 -46.01783,0.35743 -46.41639,-0.73197 z"
     id="path1" />
</svg>
